<?xml version="1.0" standalone="no"?>
<!DOCTYPE svg PUBLIC "-//W3C//DTD SVG 20010904//EN"
 "http://www.w3.org/TR/2001/REC-SVG-20010904/DTD/svg10.dtd">
<svg version="1.0" xmlns="http://www.w3.org/2000/svg"
 width="118.000000pt" height="128.000000pt" viewBox="0 0 118.000000 128.000000"
 preserveAspectRatio="xMidYMid meet">

<g transform="translate(0.000000,128.000000) scale(0.100000,-0.100000)"
fill="#000000" stroke="none">
<path d="M274 1111 c-96 -24 -177 -91 -218 -180 -31 -69 -29 -195 5 -277 44
-106 117 -204 253 -340 147 -145 192 -174 276 -174 84 0 129 29 276 175 189
189 269 320 281 461 14 158 -92 303 -244 334 -48 10 -66 9 -122 -6 -55 -15
-74 -26 -122 -73 -31 -31 -59 -63 -63 -71 -5 -13 -7 -13 -13 0 -14 31 -97 110
-136 129 -49 23 -129 33 -173 22z m136 -82 c87 -39 135 -106 146 -203 7 -57
24 -76 50 -55 8 6 14 21 14 33 0 59 33 132 79 176 68 67 152 87 228 55 100
-42 153 -121 153 -229 0 -132 -78 -265 -262 -449 -199 -198 -244 -202 -420
-37 -108 101 -206 221 -254 314 -31 59 -38 83 -42 147 -4 66 -1 84 21 131 52
115 178 166 287 117z"/>
</g>
</svg>
